<?xml version="1.0" encoding="utf-8"?>
<!-- Generator: Adobe Illustrator 23.0.0, SVG Export Plug-In . SVG Version: 6.00 Build 0)  -->
<svg version="1.1" id="图层_1" xmlns="http://www.w3.org/2000/svg" xmlns:xlink="http://www.w3.org/1999/xlink" x="0px" y="0px"
	 viewBox="0 0 200 200" style="enable-background:new 0 0 200 200;" xml:space="preserve">
<style type="text/css">
	.st0{fill:url(#SVGID_1_);}
	.st1{fill:url(#SVGID_2_);}
	.st2{fill:url(#SVGID_3_);}
</style>
<g>
	<linearGradient id="SVGID_1_" gradientUnits="userSpaceOnUse" x1="57.6573" y1="131.8556" x2="57.6573" y2="71.3948">
		<stop  offset="0" style="stop-color:#1B3F7F"/>
		<stop  offset="1" style="stop-color:#1B3F7F"/>
	</linearGradient>
	<path class="st0" d="M57.7,131.9L57.7,131.9c-6.4,0-11.7-5.2-11.7-11.7V83.1c0-6.4,5.2-11.7,11.7-11.7h0c6.4,0,11.7,5.2,11.7,11.7
		v37.1C69.3,126.6,64.1,131.9,57.7,131.9z"/>
	<linearGradient id="SVGID_2_" gradientUnits="userSpaceOnUse" x1="100" y1="145.9764" x2="100" y2="57.2741">
		<stop  offset="0" style="stop-color:#0C78E0"/>
		<stop  offset="1" style="stop-color:#0C78E0"/>
	</linearGradient>
	<path class="st1" d="M100,146L100,146c-6.4,0-11.7-5.2-11.7-11.7V69c0-6.4,5.2-11.7,11.7-11.7h0c6.4,0,11.7,5.2,11.7,11.7v65.4
		C111.7,140.7,106.4,146,100,146z"/>
	<linearGradient id="SVGID_3_" gradientUnits="userSpaceOnUse" x1="142.3427" y1="160.9449" x2="142.3427" y2="39.0551">
		<stop  offset="0" style="stop-color:#1BF2BE"/>
		<stop  offset="0.1109" style="stop-color:#15E1BE"/>
		<stop  offset="0.5" style="stop-color:#00AABE"/>
		<stop  offset="0.7724" style="stop-color:#199ADF"/>
		<stop  offset="1" style="stop-color:#2A8EF7"/>
	</linearGradient>
	<path class="st2" d="M142.3,160.9L142.3,160.9c-6.4,0-11.7-5.2-11.7-11.7V50.7c0-6.4,5.2-11.7,11.7-11.7h0
		c6.4,0,11.7,5.2,11.7,11.7v98.5C154,155.7,148.8,160.9,142.3,160.9z"/>
</g>
</svg>
