<?xml version="1.0" encoding="utf-8"?>
<!-- Generator: Adobe Illustrator 23.0.0, SVG Export Plug-In . SVG Version: 6.00 Build 0)  -->
<svg version="1.1" id="图层_1" xmlns="http://www.w3.org/2000/svg" xmlns:xlink="http://www.w3.org/1999/xlink" x="0px" y="0px"
	 viewBox="0 0 283.5 113.4" style="enable-background:new 0 0 283.5 113.4;" xml:space="preserve">
<style type="text/css">
	.st0{fill:url(#SVGID_1_);}
	.st1{fill:url(#SVGID_2_);}
	.st2{fill:url(#SVGID_3_);}
	.st3{fill:url(#SVGID_4_);}
	.st4{fill:url(#SVGID_5_);}
	.st5{fill:url(#SVGID_6_);}
	.st6{fill:url(#SVGID_7_);}
	.st7{fill:url(#SVGID_8_);}
	.st8{fill:url(#SVGID_9_);}
	.st9{fill:url(#SVGID_10_);}
	.st10{fill:url(#SVGID_11_);}
</style>
<g>
	<linearGradient id="SVGID_1_" gradientUnits="userSpaceOnUse" x1="26.9823" y1="92.9742" x2="26.9823" y2="64.2867">
		<stop  offset="0" style="stop-color:#00ABEE"/>
		<stop  offset="1" style="stop-color:#0379F9"/>
	</linearGradient>
	<path class="st0" d="M27,93L27,93c-3.7,0-6.8-3-6.8-6.8V71c0-3.7,3-6.7,6.7-6.7h0c3.7,0,6.7,3,6.7,6.7v15.2C33.7,90,30.7,93,27,93z
		"/>
	<linearGradient id="SVGID_2_" gradientUnits="userSpaceOnUse" x1="49.9323" y1="92.9742" x2="49.9323" y2="67.6617">
		<stop  offset="0" style="stop-color:#00ABEE"/>
		<stop  offset="1" style="stop-color:#0379F9"/>
	</linearGradient>
	<path class="st1" d="M49.9,93L49.9,93c-3.7,0-6.8-3-6.8-6.8V74.4c0-3.7,3-6.7,6.7-6.7h0c3.7,0,6.7,3,6.7,6.7v11.8
		C56.7,90,53.7,93,49.9,93z"/>
	<linearGradient id="SVGID_3_" gradientUnits="userSpaceOnUse" x1="72.8823" y1="92.9742" x2="72.8823" y2="59.2242">
		<stop  offset="0" style="stop-color:#00ABEE"/>
		<stop  offset="1" style="stop-color:#0379F9"/>
	</linearGradient>
	<path class="st2" d="M72.9,93L72.9,93c-3.7,0-6.8-3-6.8-6.8V66c0-3.7,3-6.7,6.7-6.7h0c3.7,0,6.7,3,6.7,6.7v20.3
		C79.6,90,76.6,93,72.9,93z"/>
	<linearGradient id="SVGID_4_" gradientUnits="userSpaceOnUse" x1="95.8323" y1="92.9742" x2="95.8323" y2="54.1617">
		<stop  offset="0" style="stop-color:#00ABEE"/>
		<stop  offset="1" style="stop-color:#0379F9"/>
	</linearGradient>
	<path class="st3" d="M95.8,93L95.8,93c-3.7,0-6.8-3-6.8-6.8V60.9c0-3.7,3-6.7,6.7-6.7h0c3.7,0,6.7,3,6.7,6.7v25.3
		C102.6,90,99.6,93,95.8,93z"/>
	<linearGradient id="SVGID_5_" gradientUnits="userSpaceOnUse" x1="118.7823" y1="92.9742" x2="118.7823" y2="59.2242">
		<stop  offset="0" style="stop-color:#00ABEE"/>
		<stop  offset="1" style="stop-color:#0379F9"/>
	</linearGradient>
	<path class="st4" d="M118.8,93L118.8,93c-3.7,0-6.8-3-6.8-6.8V66c0-3.7,3-6.7,6.8-6.7h0c3.7,0,6.7,3,6.7,6.7v20.3
		C125.5,90,122.5,93,118.8,93z"/>
	<linearGradient id="SVGID_6_" gradientUnits="userSpaceOnUse" x1="141.7323" y1="92.9742" x2="141.7323" y2="64.2867">
		<stop  offset="0" style="stop-color:#00ABEE"/>
		<stop  offset="1" style="stop-color:#0379F9"/>
	</linearGradient>
	<path class="st5" d="M141.7,93L141.7,93c-3.7,0-6.8-3-6.8-6.8V71c0-3.7,3-6.7,6.7-6.7h0c3.7,0,6.8,3,6.8,6.7v15.2
		C148.5,90,145.5,93,141.7,93z"/>
	<linearGradient id="SVGID_7_" gradientUnits="userSpaceOnUse" x1="164.6823" y1="92.9742" x2="164.6823" y2="49.0992">
		<stop  offset="0" style="stop-color:#00ABEE"/>
		<stop  offset="1" style="stop-color:#0379F9"/>
	</linearGradient>
	<path class="st6" d="M164.7,93L164.7,93c-3.7,0-6.8-3-6.8-6.8V55.8c0-3.7,3-6.7,6.8-6.7h0c3.7,0,6.7,3,6.7,6.7v30.4
		C171.4,90,168.4,93,164.7,93z"/>
	<linearGradient id="SVGID_8_" gradientUnits="userSpaceOnUse" x1="187.6323" y1="92.9742" x2="187.6323" y2="44.0367">
		<stop  offset="0" style="stop-color:#00ABEE"/>
		<stop  offset="1" style="stop-color:#0379F9"/>
	</linearGradient>
	<path class="st7" d="M187.6,93L187.6,93c-3.7,0-6.8-3-6.8-6.8V50.8c0-3.7,3-6.7,6.8-6.7h0c3.7,0,6.7,3,6.7,6.7v35.4
		C194.4,90,191.4,93,187.6,93z"/>
	<linearGradient id="SVGID_9_" gradientUnits="userSpaceOnUse" x1="210.5823" y1="92.9742" x2="210.5823" y2="37.2867">
		<stop  offset="0" style="stop-color:#00ABEE"/>
		<stop  offset="1" style="stop-color:#0379F9"/>
	</linearGradient>
	<path class="st8" d="M210.6,93L210.6,93c-3.7,0-6.8-3-6.8-6.8V44c0-3.7,3-6.7,6.7-6.7h0c3.7,0,6.8,3,6.8,6.7v42.2
		C217.3,90,214.3,93,210.6,93z"/>
	<linearGradient id="SVGID_10_" gradientUnits="userSpaceOnUse" x1="233.5323" y1="92.9742" x2="233.5323" y2="38.9742">
		<stop  offset="0" style="stop-color:#00ABEE"/>
		<stop  offset="1" style="stop-color:#0379F9"/>
	</linearGradient>
	<path class="st9" d="M233.5,93L233.5,93c-3.7,0-6.8-3-6.8-6.8V45.7c0-3.7,3-6.7,6.7-6.7h0c3.7,0,6.8,3,6.8,6.7v40.5
		C240.3,90,237.3,93,233.5,93z"/>
	<linearGradient id="SVGID_11_" gradientUnits="userSpaceOnUse" x1="256.4823" y1="92.9742" x2="256.4823" y2="20.4117">
		<stop  offset="0" style="stop-color:#00ABEE"/>
		<stop  offset="1" style="stop-color:#0379F9"/>
	</linearGradient>
	<path class="st10" d="M256.5,93L256.5,93c-3.7,0-6.8-3-6.8-6.8V27.2c0-3.7,3-6.7,6.7-6.7h0c3.7,0,6.7,3,6.7,6.7v59.1
		C263.2,90,260.2,93,256.5,93z"/>
</g>
</svg>
